HIERARCHY
ROOT Hips
{
  OFFSET 15.689 40.8509 -6.66476
  CHANNELS 6 Xposition Yposition Zposition Zrotation Xrotation Yrotation
  JOINT LeftHip
  {
    OFFSET 3.43 0 0
    CHANNELS 6 Xposition Yposition Zposition Zrotation Xrotation Yrotation
    JOINT LeftKnee
    {
      OFFSET 0 -18.47 0
      CHANNELS 6 Xposition Yposition Zposition Zrotation Xrotation Yrotation
      JOINT LeftAnkle
      {
        OFFSET 0 -17.95 0
        CHANNELS 6 Xposition Yposition Zposition Zrotation Xrotation Yrotation
        End Site
        {
          OFFSET 0 -3.12 0
        }
      }
    }
  }
  JOINT RightHip
  {
    OFFSET -3.43 0 0
    CHANNELS 6 Xposition Yposition Zposition Zrotation Xrotation Yrotation
    JOINT RightKnee
    {
      OFFSET 0 -18.47 0
      CHANNELS 6 Xposition Yposition Zposition Zrotation Xrotation Yrotation
      JOINT RightAnkle
      {
        OFFSET 0 -17.95 0
        CHANNELS 6 Xposition Yposition Zposition Zrotation Xrotation Yrotation
        End Site
        {
          OFFSET 0 -3.12 0
        }
      }
    }
  }
  JOINT Chest
  {
    OFFSET 0 4.57 0
    CHANNELS 6 Xposition Yposition Zposition Zrotation Xrotation Yrotation
    JOINT CS_BVH
    {
      OFFSET 0 6.57 0
      CHANNELS 6 Xposition Yposition Zposition Zrotation Xrotation Yrotation
      JOINT LeftCollar
      {
        OFFSET 1.06 4.19 1.76
        CHANNELS 6 Xposition Yposition Zposition Zrotation Xrotation Yrotation
        JOINT LeftShoulder
        {
          OFFSET 5.81 0 0
          CHANNELS 6 Xposition Yposition Zposition Zrotation Xrotation Yrotation
          JOINT LeftElbow
          {
            OFFSET 0 -12.08 0
            CHANNELS 6 Xposition Yposition Zposition Zrotation Xrotation Yrotation
            JOINT LeftWrist
            {
              OFFSET 0 -9.82 0
              CHANNELS 6 Xposition Yposition Zposition Zrotation Xrotation Yrotation
              End Site
              {
                OFFSET 0 -7.37 0
              }
            }
          }
        }
      }
      JOINT RightCollar
      {
        OFFSET -1.06 4.19 1.76
        CHANNELS 6 Xposition Yposition Zposition Zrotation Xrotation Yrotation
        JOINT RightShoulder
        {
          OFFSET -6.06 0 0
          CHANNELS 6 Xposition Yposition Zposition Zrotation Xrotation Yrotation
          JOINT RightElbow
          {
            OFFSET 0 -11.08 0
            CHANNELS 6 Xposition Yposition Zposition Zrotation Xrotation Yrotation
            JOINT RightWrist
            {
              OFFSET 0 -9.82 0
              CHANNELS 6 Xposition Yposition Zposition Zrotation Xrotation Yrotation
              End Site
              {
                OFFSET 0 -7.14001 0
              }
            }
          }
        }
      }
      JOINT Neck
      {
        OFFSET 0 4.05 0
        CHANNELS 6 Xposition Yposition Zposition Zrotation Xrotation Yrotation
        JOINT Head
        {
          OFFSET 0 5.19 0
          CHANNELS 6 Xposition Yposition Zposition Zrotation Xrotation Yrotation
          End Site
          {
            OFFSET 0 4.14001 0
          }
        }
      }
    }
  }
}
MOTION
Frames:	10
Frame Time:	0.0333333
16.3827 40.8333 -4.65116 1.11882 -0.0202072 -0.966183 3.43 9.12756e-010 -1.60032e-011 6.96492 0.444571 -1.93822 1.57372e-008 -18.47 1.10541e-007 -4.52183 19.3224 -6.40742 1.5558e-008 -17.95 3.38894e-008 7.42018 -9.62329 -0.473147 -3.43 -9.12749e-010 1.60023e-011 -4.55323 -1.74861 -0.326984 4.27853e-008 -18.47 -1.42709e-007 -0.722238 24.1215 -3.31183 -2.59563e-008 -17.95 2.98131e-008 -5.99242 -11.2851 0.219038 -1.05168e-009 4.57 4.29798e-011 -0.352086 0.376246 -0.26401 -1.67976e-009 6.57 2.67812e-010 -0.714445 0.75292 -0.192238 1.06 4.19 1.76 6.54262 1.08394 0.182196 5.81 -5.77685e-010 -2.42139e-010 77.885 7.73 -3.43128 -4.70036e-009 -12.08 6.73172e-010 3.19571 -0.367179 4.16177 -1.10605e-009 -9.82 -1.29618e-009 -0.872186 -1.41514 -0.128769 -1.06 4.19 1.76 -7.93716 1.08514 0.552841 -6.06 -5.89036e-008 -4.70616e-010 -78.7212 -0.217741 0.0743532 -7.10448e-009 -11.08 -5.62306e-011 -1.43835 -0.145496 -1.14638 -1.10928e-009 -9.82 1.29577e-009 2.43181 3.65111 -0.354503 4.66962e-010 4.05 1.19922e-010 -0.663748 -0.136511 -0.434815 3.38399e-009 5.19 -2.27068e-010 0.0184509 0.431655 0.0286382 
16.3803 40.7932 -4.68223 1.21593 0.0160666 -0.93468 3.43 9.12756e-010 -1.60032e-011 6.82876 0.802098 -1.71113 1.57372e-008 -18.47 1.10541e-007 -4.58664 18.4531 -6.20638 1.5558e-008 -17.95 3.38894e-008 7.02807 -9.12886 -0.472254 -3.43 -9.12749e-010 1.60023e-011 -4.653 -1.84449 -0.352897 4.27853e-008 -18.47 -1.42709e-007 -0.712568 24.2255 -3.49567 -2.59563e-008 -17.95 2.98131e-008 -5.90083 -11.6128 0.219292 -1.05168e-009 4.57 4.29798e-011 -0.417743 0.376246 -0.26401 -1.67976e-009 6.57 2.67812e-010 -0.739113 0.7565 -0.187422 1.06 4.19 1.76 6.37811 1.08974 0.131092 5.81 -5.77685e-010 -2.42139e-010 77.9805 7.8162 -3.40553 -4.70036e-009 -12.08 6.73172e-010 3.29856 -0.367252 4.00205 -1.10605e-009 -9.82 -1.29618e-009 -0.912862 -1.43879 -0.12877 -1.06 4.19 1.76 -8.07995 1.08974 0.604799 -6.06 -5.89036e-008 -4.70616e-010 -78.6949 -0.165131 0.0988107 -7.10448e-009 -11.08 -5.62306e-011 -1.38899 -0.145507 -0.915721 -1.10928e-009 -9.82 1.29577e-009 2.5146 3.70182 -0.358991 4.66962e-010 4.05 1.19922e-010 -0.741487 -0.155484 -0.470628 3.38399e-009 5.19 -2.27068e-010 0.0567433 0.554954 -0.0687172 
16.3832 40.8059 -4.70855 1.20225 -0.0385099 -0.879017 3.43 9.12756e-010 -1.60032e-011 6.86226 0.741785 -1.73566 1.57372e-008 -18.47 1.10541e-007 -4.58775 18.5596 -6.30233 1.5558e-008 -17.95 3.38894e-008 7.00899 -9.13014 -0.471759 -3.43 -9.12749e-010 1.60023e-011 -4.64227 -1.7943 -0.327995 4.27853e-008 -18.47 -1.42709e-007 -0.7277 24.1936 -3.35164 -2.59563e-008 -17.95 2.98131e-008 -5.78674 -11.4746 0.219184 -1.05168e-009 4.57 4.29798e-011 -0.408002 0.403219 -0.250503 -1.67976e-009 6.57 2.67812e-010 -0.7358 0.810057 -0.158096 1.06 4.19 1.76 6.465 1.16816 0.121843 5.81 -5.77685e-010 -2.42139e-010 77.9156 7.8473 -3.47369 -4.70036e-009 -12.08 6.73172e-010 3.27309 -0.367273 3.95658 -1.10605e-009 -9.82 -1.29618e-009 -0.760152 -1.44278 -0.0961942 -1.06 4.19 1.76 -7.95111 1.1553 0.639436 -6.06 -5.89036e-008 -4.70616e-010 -78.7736 -0.111383 0.055406 -7.10448e-009 -11.08 -5.62306e-011 -1.36423 -0.144544 -0.840897 -1.10928e-009 -9.82 1.29577e-009 2.7313 3.66707 -0.384672 4.66962e-010 4.05 1.19922e-010 -0.682849 -0.0665697 -0.557281 3.38399e-009 5.19 -2.27068e-010 -0.294271 0.417391 -0.0115724 
16.3957 40.8071 -4.7536 1.15488 -0.0104587 -0.57154 3.43 9.12756e-010 -1.60032e-011 6.93335 0.516551 -1.81298 1.57372e-008 -18.47 1.10541e-007 -4.6023 18.6735 -6.51597 1.5558e-008 -17.95 3.38894e-008 7.29725 -9.40642 -0.471942 -3.43 -9.12749e-010 1.60023e-011 -4.49921 -1.65461 -0.329553 4.27853e-008 -18.47 -1.42709e-007 -0.859054 23.8714 -3.5825 -2.59563e-008 -17.95 2.98131e-008 -5.65656 -11.4173 0.21914 -1.05168e-009 4.57 4.29798e-011 -0.355426 0.413839 -0.299372 -1.67976e-009 6.57 2.67812e-010 -0.700691 0.834949 -0.246787 1.06 4.19 1.76 6.43301 1.1856 -0.0124771 5.81 -5.77685e-010 -2.42139e-010 78.0023 7.92575 -3.61251 -4.70036e-009 -12.08 6.73172e-010 3.23365 -0.363308 3.78244 -1.10605e-009 -9.82 -1.29618e-009 -0.637265 -1.43428 -0.0648017 -1.06 4.19 1.76 -7.90354 1.20214 0.539186 -6.06 -5.89036e-008 -4.70616e-010 -78.8538 -0.0699536 0.0782663 -7.10448e-009 -11.08 -5.62306e-011 -1.34551 -0.143152 -0.596254 -1.10928e-009 -9.82 1.29577e-009 2.97597 3.8974 -0.421769 4.66962e-010 4.05 1.19922e-010 -0.675442 -0.0207323 -0.674427 3.38399e-009 5.19 -2.27068e-010 -0.382877 0.330894 0.0148583 
16.3897 40.8037 -4.77776 1.12827 -0.0105894 -0.587689 3.43 9.12756e-010 -1.60032e-011 6.96666 0.530983 -1.76231 1.57372e-008 -18.47 1.10541e-007 -4.58576 18.5966 -6.33759 1.5558e-008 -17.95 3.38894e-008 7.60562 -9.71022 -0.472815 -3.43 -9.12749e-010 1.60023e-011 -4.42773 -1.75849 -0.29194 4.27853e-008 -18.47 -1.42709e-007 -0.895547 23.9715 -3.71666 -2.59563e-008 -17.95 2.98131e-008 -5.74222 -11.439 0.219157 -1.05168e-009 4.57 4.29798e-011 -0.352093 0.421048 -0.273723 -1.67976e-009 6.57 2.67812e-010 -0.670076 0.84489 -0.199223 1.06 4.19 1.76 6.52916 1.20879 0.0143563 5.81 -5.77685e-010 -2.42139e-010 77.9051 7.92166 -3.63735 -4.70036e-009 -12.08 6.73172e-010 3.15824 -0.357692 4.15893 -1.10605e-009 -9.82 -1.29618e-009 -0.73077 -1.26483 -0.0978553 -1.06 4.19 1.76 -7.91488 1.20676 0.644128 -6.06 -5.89036e-008 -4.70616e-010 -78.9152 0.074596 0.117681 -7.10448e-009 -11.08 -5.62306e-011 -1.39489 -0.142078 -0.964379 -1.10928e-009 -9.82 1.29577e-009 2.99946 3.81407 -0.421677 4.66962e-010 4.05 1.19922e-010 -0.731301 0.043565 -0.571211 3.38399e-009 5.19 -2.27068e-010 -0.319604 0.23818 -0.0194216 
16.4026 40.8175 -4.79545 1.30042 -0.171635 -0.608783 3.43 9.12756e-010 -1.60032e-011 6.73171 0.66789 -1.847 1.57372e-008 -18.47 1.10541e-007 -4.53527 18.5395 -6.34093 1.5558e-008 -17.95 3.38894e-008 7.00717 -9.1198 -0.472826 -3.43 -9.12749e-010 1.60023e-011 -4.66353 -1.64938 -0.349886 4.27853e-008 -18.47 -1.42709e-007 -0.869184 24.0575 -3.47523 -2.59563e-008 -17.95 2.98131e-008 -5.63956 -11.38 0.219111 -1.05168e-009 4.57 4.29798e-011 -0.418411 0.466925 -0.253536 -1.67976e-009 6.57 2.67812e-010 -0.770804 0.936782 -0.160326 1.06 4.19 1.76 6.69355 1.34964 0.207343 5.81 -5.77685e-010 -2.42139e-010 77.7738 7.6845 -3.63073 -4.70036e-009 -12.08 6.73172e-010 3.08588 -0.352331 4.24758 -1.10605e-009 -9.82 -1.29618e-009 -0.779993 -1.10668 -0.119724 -1.06 4.19 1.76 -7.86685 1.32539 0.745151 -6.06 -5.89036e-008 -4.70616e-010 -78.9613 0.16767 0.162598 -7.10448e-009 -11.08 -5.62306e-011 -1.43697 -0.143369 -1.45511 -1.10928e-009 -9.82 1.29577e-009 2.88259 3.73379 -0.402918 4.66962e-010 4.05 1.19922e-010 -0.688674 0.183601 -0.525376 3.38399e-009 5.19 -2.27068e-010 -0.466094 0.211385 0.0975601 
16.404 40.8089 -4.82179 1.08227 -0.119326 -0.468921 3.43 9.12756e-010 -1.60032e-011 7.00117 0.521192 -1.74584 1.57372e-008 -18.47 1.10541e-007 -4.58878 18.6215 -6.32259 1.5558e-008 -17.95 3.38894e-008 7.66402 -9.75276 -0.474438 -3.43 -9.12749e-010 1.60023e-011 -4.33538 -1.68698 -0.273838 4.27853e-008 -18.47 -1.42709e-007 -0.982486 23.9286 -3.90156 -2.59563e-008 -17.95 2.98131e-008 -5.72337 -11.3529 0.219071 -1.05168e-009 4.57 4.29798e-011 -0.335232 0.471102 -0.271987 -1.67976e-009 6.57 2.67812e-010 -0.647594 0.933096 -0.194308 1.06 4.19 1.76 6.69923 1.34364 0.22502 5.81 -5.77685e-010 -2.42139e-010 77.8936 7.62961 -3.40781 -4.70036e-009 -12.08 6.73172e-010 3.24601 -0.365454 3.93167 -1.10605e-009 -9.82 -1.29618e-009 -0.941008 -1.25394 -0.145009 -1.06 4.19 1.76 -7.77257 1.32335 0.665227 -6.06 -5.89036e-008 -4.70616e-010 -79.0203 0.128246 0.036782 -7.10448e-009 -11.08 -5.62306e-011 -1.50705 -0.12538 -1.41873 -1.10928e-009 -9.82 1.29577e-009 3.00812 3.79581 -0.420044 4.66962e-010 4.05 1.19922e-010 -0.590834 0.204071 -0.572204 3.38399e-009 5.19 -2.27068e-010 -0.461893 0.174249 0.0514125 
16.4296 40.807 -4.84173 1.14849 -0.0980676 -0.376431 3.43 9.12756e-010 -1.60032e-011 6.89003 0.453587 -1.8459 1.57372e-008 -18.47 1.10541e-007 -4.55839 18.5974 -6.57882 1.5558e-008 -17.95 3.38894e-008 7.03453 -9.13751 -0.47362 -3.43 -9.12749e-010 1.60023e-011 -4.48143 -1.67134 -0.321908 4.27853e-008 -18.47 -1.42709e-007 -0.947548 23.8654 -3.70246 -2.59563e-008 -17.95 2.98131e-008 -5.47201 -11.1955 0.218884 -1.05168e-009 4.57 4.29798e-011 -0.34 0.469474 -0.272638 -1.67976e-009 6.57 2.67812e-010 -0.662845 0.951878 -0.195587 1.06 4.19 1.76 6.73786 1.36969 0.165416 5.81 -5.77685e-010 -2.42139e-010 77.8342 7.57185 -3.30297 -4.70036e-009 -12.08 6.73172e-010 3.33328 -0.373172 3.67979 -1.10605e-009 -9.82 -1.29618e-009 -0.791133 -1.21601 -0.112635 -1.06 4.19 1.76 -7.75532 1.35009 0.621495 -6.06 -5.89036e-008 -4.70616e-010 -79.012 0.089485 -0.0333179 -7.10448e-009 -11.08 -5.62306e-011 -1.56161 -0.116244 -1.49595 -1.10928e-009 -9.82 1.29577e-009 3.14799 3.88817 -0.441029 4.66962e-010 4.05 1.19922e-010 -0.592613 0.247409 -0.518539 3.38399e-009 5.19 -2.27068e-010 -0.213833 -0.0160385 0.0161218 
16.4341 40.805 -4.86446 1.22293 -0.0984908 -0.464217 3.43 9.12756e-010 -1.60032e-011 6.80248 0.434232 -1.86442 1.57372e-008 -18.47 1.10541e-007 -4.58179 18.5982 -6.44173 1.5558e-008 -17.95 3.38894e-008 7.11189 -9.21946 -0.471391 -3.43 -9.12749e-010 1.60023e-011 -4.57186 -1.80417 -0.29394 4.27853e-008 -18.47 -1.42709e-007 -0.945605 24.0611 -3.61541 -2.59563e-008 -17.95 2.98131e-008 -5.5137 -11.3601 0.218946 -1.05168e-009 4.57 4.29798e-011 -0.358015 0.472188 -0.248842 -1.67976e-009 6.57 2.67812e-010 -0.66677 0.947804 -0.152022 1.06 4.19 1.76 6.71751 1.3662 0.209616 5.81 -5.77685e-010 -2.42139e-010 77.7969 7.51116 -3.34642 -4.70036e-009 -12.08 6.73172e-010 3.31327 -0.376206 3.69184 -1.10605e-009 -9.82 -1.29618e-009 -0.645861 -1.19026 -0.0792802 -1.06 4.19 1.76 -8.01062 1.34125 0.681197 -6.06 -5.89036e-008 -4.70616e-010 -78.8203 0.0308008 -0.102523 -7.10448e-009 -11.08 -5.62306e-011 -1.57643 -0.11415 -1.46855 -1.10928e-009 -9.82 1.29577e-009 2.95478 3.8322 -0.411913 4.66962e-010 4.05 1.19922e-010 -0.663194 0.283134 -0.475516 3.38399e-009 5.19 -2.27068e-010 -0.246953 0.0219586 -0.008996 
16.4362 40.8065 -4.88898 1.2824 -0.145642 -0.514028 3.43 9.12756e-010 -1.60032e-011 6.69377 0.5051 -1.86545 1.57372e-008 -18.47 1.10541e-007 -4.53155 18.5003 -6.20166 1.5558e-008 -17.95 3.38894e-008 7.37552 -9.48525 -0.476525 -3.43 -9.12749e-010 1.60023e-011 -4.6577 -1.91827 -0.323395 4.27853e-008 -18.47 -1.42709e-007 -0.888185 24.2342 -3.65907 -2.59563e-008 -17.95 2.98131e-008 -5.70392 -11.3204 0.218836 -1.05168e-009 4.57 4.29798e-011 -0.379047 0.488325 -0.223862 -1.67976e-009 6.57 2.67812e-010 -0.668792 0.981055 -0.10792 1.06 4.19 1.76 6.46805 1.40592 0.056829 5.81 -5.77685e-010 -2.42139e-010 77.9614 7.60616 -3.12823 -4.70036e-009 -12.08 6.73172e-010 3.45698 -0.378156 3.63412 -1.10605e-009 -9.82 -1.29618e-009 -0.561073 -1.2827 -0.0518867 -1.06 4.19 1.76 -8.19885 1.38301 0.57773 -6.06 -5.89036e-008 -4.70616e-010 -78.6553 -0.204692 -0.196455 -7.10448e-009 -11.08 -5.62306e-011 -1.5641 -0.121373 -1.63932 -1.10928e-009 -9.82 1.29577e-009 2.88655 3.86282 -0.402542 4.66962e-010 4.05 1.19922e-010 -0.707232 0.330374 -0.486256 3.38399e-009 5.19 -2.27068e-010 -0.324168 -0.0473712 -0.0647852 
